<svg width="1081" height="1138" viewBox="0 0 1081 1138" fill="none" xmlns="http://www.w3.org/2000/svg">
<path d="M782.065 960.408C771.522 960.408 760.659 960.087 749.849 959.446C748.297 959.286 746.691 959.179 745.086 959.126C744.711 959.126 742.196 959.072 742.196 959.072C741.072 958.805 739.948 958.645 738.771 958.538L735.988 958.324C724.697 957.362 711.853 955.76 698.956 953.676C696.227 953.249 693.444 952.714 690.768 952.233L686.38 951.432C680.44 950.257 674.125 948.974 667.917 947.532C660.318 945.822 652.452 943.792 645.174 941.762L642.07 940.907C638.859 940.052 635.862 939.144 632.865 938.236C632.865 938.236 630.671 937.541 630.029 937.381C651.381 923.596 677.39 904.79 705.538 880.107C707.465 880.427 709.392 880.801 711.265 881.068C722.075 882.832 732.938 884.167 743.266 885.076C744.176 885.182 745.354 885.289 746.477 885.396L752.792 885.823C753.327 885.877 753.862 885.93 754.344 885.984H754.183C763.656 886.518 773.021 886.839 782.011 886.839C849.493 886.839 916.922 870.971 977.073 840.945C985.207 836.884 990.023 828.229 989.221 819.146C978.999 709.727 928.16 608.964 846.122 535.341C842.001 531.654 836.703 529.678 831.352 529.678C828.997 529.678 826.643 530.052 824.341 530.853C816.796 533.364 811.177 539.775 809.678 547.576C788.54 656.514 731.333 757.171 648.545 831.114C628.049 849.493 606.268 866.002 583.846 880.214C583.364 880.481 582.882 880.748 582.454 881.068C577.263 884.488 571.537 887.961 563.938 892.395C486.877 936.9 398.738 960.461 309.1 960.461C223.584 960.461 138.977 938.93 64.4305 898.112L45.647 887.854L45.2188 866.483V859.484C45.2188 725.595 97.5562 598.492 190.19 503.926C192.117 536.196 196.345 569.16 202.82 602.552C154.443 668.428 125.866 746.218 119.979 828.229C119.283 837.525 124.581 846.234 133.09 849.974C187.889 874.123 248.682 886.892 308.993 886.892C351.377 886.892 393.44 880.748 434.058 868.673C441.71 866.376 447.597 860.125 449.309 852.325C451.075 844.524 448.453 836.403 442.459 831.061C363.632 760.537 307.495 664.902 284.377 561.734C279.56 540.416 276.135 518.672 274.262 497.087C272.978 483.677 272.282 470.16 272.122 456.803C272.068 454.612 272.068 453.063 272.068 451.514C272.068 270.342 369.733 101.405 526.906 10.7389L545.476 0L563.938 10.6854L573.196 16.1884C573.945 16.6693 578.28 19.3407 578.655 19.5544C579.243 19.8749 579.832 20.3023 580.421 20.6763L586.843 24.7902C588.341 25.7519 589.625 26.5533 590.856 27.4616C591.177 27.6753 591.498 27.889 591.819 28.1027C593.692 29.2781 595.458 30.5069 597.278 31.7358L605.84 37.7197L617.239 46.1077L626.765 53.5341L629.708 55.8849L637.789 62.5099L640.197 64.5935C643.194 67.158 646.083 69.6691 648.866 72.1802C650.097 73.2487 651.114 74.1036 652.024 74.9584L654.967 77.6832C657 79.5531 659.195 81.6368 661.228 83.6136C661.549 83.9342 661.924 84.2547 662.298 84.5753L665.081 87.1932C667.81 89.8646 670.593 92.7497 673.43 95.6347C675.303 97.5047 676.747 99.0007 678.192 100.497C681.938 104.45 685.684 108.457 689.27 112.518C689.27 112.518 693.177 116.899 694.568 118.555C698.153 122.615 701.685 126.836 705.11 131.057L707.786 134.476L710.943 138.377C712.174 139.979 713.619 141.796 715.011 143.666C716.188 145.215 719.613 149.703 719.613 149.703C720.148 150.505 725.392 157.717 725.392 157.717C726.623 159.427 727.854 161.19 729.031 162.953C730.851 165.518 732.349 167.761 733.741 169.899C736.684 174.333 739.627 178.874 742.464 183.469L746.959 190.735C748.136 192.712 749.528 195.116 750.866 197.467C753.06 201.207 755.147 204.947 757.18 208.687C758.251 210.664 761.676 217.128 761.676 217.128L764.833 223.272C767.402 228.508 769.756 233.21 771.95 238.018C771.95 238.018 773.716 241.812 774.037 242.56C774.037 242.56 776.339 247.742 776.82 248.811C778.907 253.459 780.727 257.893 782.439 262.274C782.546 262.595 782.707 262.915 782.814 263.236C783.456 264.732 784.259 266.816 785.062 268.846C785.918 271.197 786.828 273.601 787.791 276.005C788.326 277.448 788.968 279.318 789.61 281.134L790.199 282.79C793.463 292.033 796.353 301.223 798.815 309.985C798.868 310.252 798.975 310.466 799.029 310.733C800.26 314.58 801.437 319.121 802.614 323.555C803.15 325.479 803.524 327.082 803.899 328.684C803.899 328.684 805.504 335.256 805.825 336.752C778.158 323.609 749.046 312.015 718.757 302.024C718.65 301.704 718.007 300.154 718.007 300.154C718.007 300.154 714.315 290.324 714.208 290.11C712.495 285.836 710.997 282.256 709.445 278.676C709.445 278.676 707.144 273.654 706.609 272.532L704.896 268.632C703.077 264.625 701.043 260.458 698.903 256.29L696.334 251.215C695.585 249.772 692.695 244.376 692.695 244.376C690.715 240.743 688.895 237.537 687.022 234.332C685.845 232.248 684.614 230.164 683.437 228.188L679.905 222.364C678.246 219.693 676.533 216.968 674.767 214.243C674.767 214.243 672.359 210.503 672.199 210.236L668.453 204.787C667.971 204.039 667.489 203.344 666.954 202.703C666.687 202.382 666.473 202.062 666.205 201.795L661.014 194.368L659.302 192.071C658.231 190.682 657.268 189.346 656.251 188.064C655.341 186.835 654.485 185.766 653.683 184.698L648.171 177.752C644.799 173.585 641.909 170.166 638.966 166.746C637.521 164.983 636.076 163.434 634.685 161.831C631.206 157.931 627.995 154.405 624.678 151.039L621.199 147.406C618.47 144.521 616.115 142.17 613.707 139.819L610.603 136.881C608.623 134.957 606.804 133.247 604.984 131.591L599.954 127.103C598.402 125.661 596.368 123.844 594.335 122.135L589.518 118.021L583.899 113.426C583.418 112.999 582.882 112.625 582.347 112.251L581.277 111.503L581.116 111.342C580.528 110.755 579.886 110.22 579.243 109.686L574.962 106.427C574.481 106.053 573.999 105.679 573.517 105.358C573.517 105.358 571.002 103.435 570.949 103.382C568.862 101.779 566.721 100.176 564.58 98.6801L561.155 96.2224C560.727 95.9019 559.818 95.2607 558.908 94.6196L558.212 94.1388C554.413 91.4674 549.971 90.1317 545.529 90.1317C541.087 90.1317 536.646 91.4674 532.846 94.1388C444.172 155.954 381.827 248.009 357.317 353.368C355.498 361.221 358.067 369.449 364.114 374.792C368.234 378.478 373.532 380.455 378.884 380.455C381.345 380.455 383.807 380.028 386.215 379.227C440.533 360.206 497.366 350.536 555.055 350.536C605.733 350.536 655.984 358.069 704.468 372.922C728.336 380.188 751.775 389.271 774.037 399.903C782.439 403.856 791.055 408.237 799.725 412.992C961.5 501.468 1063.02 670.672 1064.73 854.622L1064.94 875.512L1047.12 886.358C967.494 934.763 875.876 960.408 782.065 960.408ZM555.108 424.052C487.572 424.052 420.144 439.973 360.1 470.053C351.966 474.113 347.149 482.768 348.006 491.851C359.94 619.649 427.368 735.159 532.953 808.781C536.753 811.453 541.194 812.735 545.636 812.735C550.078 812.735 554.466 811.399 558.266 808.781C665.242 734.411 734.704 612.543 744.069 482.768C744.765 473.472 739.467 464.71 730.904 460.97C675.945 436.768 615.152 424.052 555.108 424.052Z" fill="white"/>
<path d="M794.535 993.854C721.113 1040.71 633.937 1067.96 540.5 1067.96C446.903 1067.96 359.566 1040.66 286.037 993.533C240.656 991.61 195.597 984.076 152.357 971.04C250.664 1072.34 388.357 1135.38 540.5 1135.38C690.609 1135.38 826.537 1073.99 924.576 975.208C882.353 986.534 838.792 992.945 794.535 993.854ZM707.841 82.5988C710.196 85.1633 712.55 87.7813 714.798 90.3458C714.798 90.3458 718.972 94.9405 720.417 96.6502C724.002 100.711 727.748 105.199 731.441 109.793L737.542 117.327C739.094 119.464 740.806 121.601 742.358 123.738L747.549 130.683C748.352 131.698 752.954 138.11 752.954 138.11C754.666 140.461 756.004 142.384 757.342 144.414C758.894 146.551 760.607 149.116 762.159 151.52C765.209 156.115 768.366 161.083 771.417 165.892L775.912 173.211C777.624 176.043 779.069 178.608 780.514 181.172C782.655 184.752 785.009 188.919 787.15 193.086V193.193C914.943 271.411 1002.81 408.612 1012.45 566.543C1037.65 605.651 1057.72 648.073 1072.22 692.578C1077.95 661.216 1080.89 628.839 1080.89 595.767C1081 356.413 924.255 153.069 707.841 82.5988ZM0 595.767C0 649.408 7.86679 701.34 22.5299 750.225C31.895 704.118 47.2002 659.72 68.0174 617.886C67.8033 610.567 67.5893 603.14 67.5893 595.714C67.5893 418.977 165.307 264.625 309.69 183.683C331.31 145.483 357.64 109.954 388.197 77.8972C164.077 143.72 0 351.017 0 595.767Z" fill="#9CD7FD"/>
</svg>
